<?xml version="1.0" standalone="no"?>
<!DOCTYPE svg PUBLIC "-//W3C//DTD SVG 1.1//EN" "http://www.w3.org/Graphics/SVG/1.1/DTD/svg11.dtd" >
<svg xmlns="http://www.w3.org/2000/svg" xmlns:xlink="http://www.w3.org/1999/xlink" version="1.1">
<metadata>
Created by FontForge 20150318 at Tue Sep 15 11:28:20 2015
 By uniteet7
Copyright 1998 DoubleAlex Font Studio.  Tornado is a trademark of DoubleAlex Font Studio.
</metadata>
<defs>
<font id="TornadoLightC" horiz-adv-x="537" >
  <font-face 
    font-family="TornadoLightC"
    font-weight="300"
    font-stretch="normal"
    units-per-em="1000"
    panose-1="0 0 4 0 0 0 0 0 0 0"
    ascent="775"
    descent="-225"
    x-height="504"
    cap-height="712"
    bbox="-52 -225 1061 892"
    underline-thickness="50"
    underline-position="-50"
    unicode-range="U+0020-2265"
  />
<missing-glyph horiz-adv-x="1000" 
 />
    <glyph glyph-name=".notdef" horiz-adv-x="1000" 
 />
    <glyph glyph-name=".null" horiz-adv-x="0" 
 />
    <glyph glyph-name="nonmarkingreturn" horiz-adv-x="333" 
 />
    <glyph glyph-name="space" unicode=" " horiz-adv-x="278" 
 />
    <glyph glyph-name="space" unicode="&#xa0;" horiz-adv-x="278" 
 />
    <glyph glyph-name="exclam" unicode="!" horiz-adv-x="315" 
d="M171 200h-35l-17 298v214h69v-214zM117 0v102h82v-102h-82z" />
    <glyph glyph-name="quotedbl" unicode="&#x22;" horiz-adv-x="390" 
d="M294 472h-39l-10 240h59zM135 472h-39l-10 240h59z" />
    <glyph glyph-name="numbersign" unicode="#" 
d="M409 444l-24 -176h105v-44h-113l-31 -224h-45l31 224h-164l-32 -224h-45l32 224h-108v44h114l25 176h-109v44h116l32 224h45l-32 -224h165l31 224h45l-30 -224h105v-44h-113zM200 444l-26 -176h165l25 176h-164z" />
    <glyph glyph-name="dollar" unicode="$" 
d="M282 -5v-100h-28v96h-31q-78 0 -145 25v61q60 -28 144 -28l32 1v289q-61 30 -72 35q-58 31 -88 68t-30 97q0 71 51.5 119t138.5 61v96h28v-94q85 -1 148 -21v-58q-54 21 -120 21h-28v-260q24 -16 72 -40q61 -33 90.5 -71.5t29.5 -99.5q0 -80 -50.5 -131.5t-141.5 -65.5z
M254 661q-59 -14 -87 -43t-28 -77q0 -39 28.5 -66.5t86.5 -60.5v247zM282 324v-273q58 17 87 53t29 83q0 46 -27.5 76t-88.5 61z" />
    <glyph glyph-name="percent" unicode="%" horiz-adv-x="868" 
d="M683 -11q-74 0 -108 52.5t-34 137.5q0 191 142 191t142 -191q0 -85 -34 -137.5t-108 -52.5zM238 -22h-37l428 756h37zM185 342q-74 0 -108 52.5t-34 138.5q0 90 32 140t110 50q142 0 142 -190q0 -86 -34 -138.5t-108 -52.5zM683 331q-27 0 -45.5 -15.5t-27 -41t-11.5 -48
t-3 -47.5q0 -24 3.5 -46.5t12 -48t27 -41t44.5 -15.5t44.5 15.5t27 40.5t12 48t3.5 47q0 152 -87 152zM185 684q-27 0 -45.5 -15.5t-27 -40.5t-11.5 -47.5t-3 -47.5q0 -24 3.5 -47.5t12 -48.5t27 -40.5t44.5 -15.5t44.5 15.5t27 40.5t12 48t3.5 48q0 151 -87 151z" />
    <glyph glyph-name="ampersand" unicode="&#x26;" horiz-adv-x="667" 
d="M553 0l-72 84q-47 -53 -97.5 -74.5t-120.5 -21.5q-103 0 -163 51.5t-60 139.5q0 77 41.5 127t131.5 86q-48 58 -68 94.5t-20 81.5q0 76 50.5 116t130.5 40q72 0 119.5 -38t47.5 -110q0 -115 -174 -195l186 -210q57 84 64 200h60q-13 -134 -89 -242l115 -129h-82zM302 675
q-49 0 -82 -27.5t-33 -81.5q0 -28 12.5 -56t27 -46t40.5 -46q38 17 65.5 33.5t53 48.5t25.5 69q0 106 -109 106zM246 356q-45 -27 -69 -45.5t-45 -52t-21 -73.5q0 -68 50 -108t118 -40q92 0 170 84z" />
    <glyph glyph-name="quotesingle" unicode="'" horiz-adv-x="259" 
d="M149 472h-39l-10 240h59z" />
    <glyph glyph-name="parenleft" unicode="(" horiz-adv-x="322" 
d="M241 -140q-86 119 -133.5 226t-47.5 222t46.5 219.5t134.5 228.5h53q-76 -126 -119 -232t-43 -216t43 -217.5t119 -230.5h-53z" />
    <glyph glyph-name="parenright" unicode=")" horiz-adv-x="322" 
d="M81 -140h-53q76 126 119 232t43 216t-43 217.5t-119 230.5h53q86 -119 133.5 -226t47.5 -222t-46.5 -219.5t-134.5 -228.5z" />
    <glyph glyph-name="asterisk" unicode="*" 
d="M299 509l119 -140l-46 -31l-94 156l-94 -156l-45 31l120 140l-178 39l17 53l170 -69l-16 180h56l-15 -181l166 70l16 -53z" />
    <glyph glyph-name="plus" unicode="+" horiz-adv-x="600" 
d="M329 224v-224h-58v224h-224v58h224v224h58v-224h224v-58h-224z" />
    <glyph glyph-name="comma" unicode="," horiz-adv-x="259" 
d="M185 106l-89 -239h-61l66 239h84z" />
    <glyph glyph-name="hyphen" unicode="-" horiz-adv-x="333" 
d="M39 242v59h255v-59h-255z" />
    <glyph glyph-name="hyphen" unicode="&#xad;" horiz-adv-x="333" 
d="M39 242v59h255v-59h-255z" />
    <glyph glyph-name="period" unicode="." horiz-adv-x="259" 
d="M88 0v106h82v-106h-82z" />
    <glyph glyph-name="slash" unicode="/" horiz-adv-x="278" 
d="M38 -12h-57l259 736h57z" />
    <glyph glyph-name="zero" unicode="0" 
d="M268 -11q-56 0 -99 22.5t-69 58.5t-42.5 86t-22.5 98t-6 102q0 69 11 129t36.5 116.5t74.5 89t117 32.5q55 0 98.5 -22.5t69.5 -58t42.5 -85t23 -98.5t6.5 -103q0 -68 -11 -128t-36 -116.5t-74.5 -89.5t-118.5 -33zM268 664q-40 0 -71.5 -22.5t-49 -55t-29 -76.5t-15 -81
t-3.5 -73q0 -37 3.5 -73t14.5 -80.5t28 -77t49 -55t73 -22.5q51 0 87 32t52.5 84t23 98t6.5 94q0 36 -3.5 73t-15 81t-29.5 76.5t-49 55t-72 22.5z" />
    <glyph glyph-name="one" unicode="1" 
d="M277 0v649l-140 -112l-35 42l176 133h73v-712h-74z" />
    <glyph glyph-name="two" unicode="2" 
d="M40 0v81l140 129q43 39 71.5 68t67 75t58.5 92.5t20 89.5q0 60 -45.5 94.5t-114.5 34.5q-83 0 -171 -41v62q94 38 181 38q100 0 161.5 -50t61.5 -142q0 -133 -211 -328l-155 -144h381v-59h-445z" />
    <glyph glyph-name="three" unicode="3" 
d="M200 -11q-72 0 -161 24v66q82 -31 161 -31q50 0 92.5 10t78 43t35.5 86q0 46 -19 79.5t-51 50.5t-66.5 24.5t-74.5 7.5h-52v50h37q36 0 69 5.5t69.5 19t58.5 43t22 72.5q0 68 -49 96.5t-121 28.5q-85 0 -161 -33v64q86 28 174 28q102 0 165.5 -46t63.5 -136
q0 -62 -43 -108t-116 -59v-3q79 -13 121.5 -63.5t42.5 -123.5q0 -195 -276 -195z" />
    <glyph glyph-name="four" unicode="4" 
d="M419 161v-161h-69v161h-328v73l305 478h92v-492h99v-59h-99zM350 640h-3l-267 -420h270v420z" />
    <glyph glyph-name="five" unicode="5" 
d="M217 -11q-84 0 -148 20v66q66 -27 145 -27q82 0 142.5 41.5t60.5 120.5q0 173 -184 173q-62 0 -110 -32h-50v361h393v-59h-326v-230q61 17 121 17q96 0 161 -61t65 -154q0 -111 -75.5 -173.5t-194.5 -62.5z" />
    <glyph glyph-name="six" unicode="6" 
d="M273 -11q-237 0 -237 339q0 82 15 149.5t48.5 124.5t93.5 89t142 32q74 0 134 -17v-62q-62 20 -130 20q-120 0 -179 -86.5t-60 -226.5h2q27 44 77 68.5t99 24.5q103 0 163.5 -62t60.5 -164q0 -106 -63.5 -167.5t-165.5 -61.5zM276 386q-76 0 -120 -48t-44 -121
q0 -66 40.5 -117.5t115.5 -51.5q78 0 119 48t41 119q0 69 -39.5 120t-112.5 51z" />
    <glyph glyph-name="seven" unicode="7" 
d="M202 0h-72l290 653h-381v59h447v-64z" />
    <glyph glyph-name="eight" unicode="8" 
d="M266 -11q-98 0 -168 50.5t-70 138.5q0 75 42.5 121t121.5 81q-143 67 -143 182q0 68 61 114.5t160 46.5q100 0 157.5 -45t57.5 -107q0 -64 -42.5 -107.5t-119.5 -81.5q96 -41 141 -83.5t45 -116.5q0 -96 -67.5 -144.5t-175.5 -48.5zM264 664q-55 0 -103 -28.5t-48 -86.5
q0 -72 148 -140q153 68 153 149q0 31 -14.5 53.5t-39 33t-48 15t-48.5 4.5zM259 352q-5 -2 -25.5 -12t-26 -13t-23 -12t-24 -15t-19 -16t-17.5 -19.5t-12 -22.5t-9.5 -27.5t-2.5 -31.5q0 -66 52.5 -100.5t121.5 -34.5q68 0 115 32t48 96q1 38 -13 67.5t-44.5 50.5t-54.5 32
t-66 26z" />
    <glyph glyph-name="nine" unicode="9" 
d="M204 -11q-74 0 -134 17v65q64 -23 130 -23q120 0 179 86.5t60 226.5h-3q-63 -84 -185 -84q-97 0 -155.5 58.5t-58.5 158.5q0 106 63.5 167.5t165.5 61.5q60 0 103.5 -19.5t68.5 -50t40 -77t19.5 -91t4.5 -101.5q0 -82 -15 -149.5t-48 -124.5t-93 -89t-142 -32zM267 664
q-77 0 -118 -48t-41 -119q0 -68 39 -115t113 -47q77 0 119 44t42 116q0 66 -39.5 117.5t-114.5 51.5z" />
    <glyph glyph-name="colon" unicode=":" horiz-adv-x="259" 
d="M88 0v106h82v-106h-82zM88 404v106h82v-106h-82z" />
    <glyph glyph-name="semicolon" unicode=";" horiz-adv-x="259" 
d="M95 -133h-61l66 239h84zM88 404v106h82v-106h-82z" />
    <glyph glyph-name="less" unicode="&#x3c;" horiz-adv-x="600" 
d="M46 224v58l508 224v-55l-450 -198l450 -198v-55z" />
    <glyph glyph-name="equal" unicode="=" horiz-adv-x="600" 
d="M47 339v60h506v-60h-506zM47 107v60h506v-60h-506z" />
    <glyph glyph-name="greater" unicode="&#x3e;" horiz-adv-x="600" 
d="M46 0v55l451 198l-451 198v55l508 -224v-58z" />
    <glyph glyph-name="question" unicode="?" horiz-adv-x="473" 
d="M274 294q-24 -39 -24 -88v-3h-69v5q0 48 14.5 81t52.5 75q3 3 16.5 18t18.5 20.5t17 20t17 22.5t13.5 22t12.5 24.5t7 24t3 25.5q0 63 -41.5 93t-111.5 30q-85 0 -152 -29v62q76 27 162 27q99 0 158.5 -46t59.5 -130q0 -49 -25 -91t-68.5 -89t-60.5 -74zM177 0v107h83
v-107h-83z" />
    <glyph glyph-name="at" unicode="@" horiz-adv-x="800" 
d="M535 144q-23 0 -41 14.5t-20 46.5h-3q-24 -25 -63 -43t-71 -18q-57 0 -97 44.5t-40 108.5q0 100 61 177.5t154 77.5q48 0 81 -26t44 -72l26 81h42l-69 -252q-11 -37 -10 -53q3 -41 37 -41q49 0 100.5 69.5t51.5 151.5q0 128 -87.5 201t-216.5 73q-141 0 -231 -94.5
t-90 -234.5q0 -154 91.5 -240.5t237.5 -86.5q143 0 243 103l26 -26q-108 -117 -272 -117q-166 0 -271.5 101t-105.5 267q0 160 106 264t267 104q141 0 242.5 -84.5t101.5 -216.5q0 -66 -24 -122t-59.5 -88.5t-72.5 -50.5t-68 -18zM420 502q-67 0 -115.5 -61.5t-47.5 -132.5
q0 -49 27.5 -82t73.5 -33q69 0 115.5 66.5t46.5 135.5q0 47 -29 77t-71 30z" />
    <glyph glyph-name="A" unicode="A" horiz-adv-x="667" 
d="M605 0l-79 190h-386l-78 -190h-70l301 712h84l298 -712h-70zM333 656l-172 -416h344z" />
    <glyph glyph-name="B" unicode="B" horiz-adv-x="564" 
d="M269 0h-197v712h205q111 0 168.5 -44.5t57.5 -125.5q0 -142 -134 -173v-3q74 -7 114.5 -57.5t40.5 -123.5q0 -94 -69.5 -139.5t-185.5 -45.5zM292 653h-151v-256h82q36 0 60 1.5t55.5 9t50 21t32 40t13.5 63.5q0 66 -42 93.5t-100 27.5zM232 338h-91v-279h123
q189 0 189 133q0 39 -14.5 67t-35 43t-53 23.5t-58 10.5t-60.5 2z" />
    <glyph glyph-name="C" unicode="C" horiz-adv-x="630" 
d="M432 -12q-175 0 -286 102t-111 268q0 161 113.5 263.5t283.5 102.5q99 0 166 -25v-69q-76 34 -162 34q-141 0 -235.5 -87t-94.5 -221q0 -136 96 -222t230 -86q86 0 167 32v-67q-67 -25 -167 -25z" />
    <glyph glyph-name="D" unicode="D" horiz-adv-x="722" 
d="M295 0h-223v712h233q169 0 273.5 -95t104.5 -256q0 -179 -102.5 -270t-285.5 -91zM314 653h-173v-594h154q318 0 318 300q0 140 -84.5 217t-214.5 77z" />
    <glyph glyph-name="E" unicode="E" horiz-adv-x="500" 
d="M69 0v712h409v-59h-340v-253h291v-59h-291v-282h342v-59h-411z" />
    <glyph glyph-name="F" unicode="F" horiz-adv-x="463" 
d="M141 653v-253h275v-59h-275v-341h-69v712h379v-59h-310z" />
    <glyph glyph-name="G" unicode="G" horiz-adv-x="722" 
d="M436 -12q-174 0 -284.5 102t-110.5 268q0 161 113 263.5t283 102.5q112 0 205 -32v-66q-75 37 -200 37q-141 0 -235.5 -87t-94.5 -220q0 -136 95.5 -221.5t229.5 -85.5q90 0 150 18v230h-181v58h249v-337q-94 -30 -219 -30z" />
    <glyph glyph-name="H" unicode="H" horiz-adv-x="722" 
d="M588 0v341h-452v-341h-69v712h69v-312h452v312h68v-712h-68z" />
    <glyph glyph-name="I" unicode="I" horiz-adv-x="219" 
d="M75 0v712h69v-712h-69z" />
    <glyph glyph-name="J" unicode="J" horiz-adv-x="343" 
d="M73 -12q-39 0 -73 8v62q43 -8 55 -8q81 0 113.5 41.5t32.5 116.5v504h68v-515q0 -88 -45.5 -148.5t-150.5 -60.5z" />
    <glyph glyph-name="K" unicode="K" horiz-adv-x="611" 
d="M522 0l-383 371v-371h-69v712h69v-332l349 332h93l-357 -336l396 -376h-98z" />
    <glyph glyph-name="L" unicode="L" horiz-adv-x="486" 
d="M72 0v712h69v-653h342v-59h-411z" />
    <glyph glyph-name="M" unicode="M" horiz-adv-x="807" 
d="M666 0v612h-3l-260 -292l-259 292h-3v-612h-69v712h64l269 -303l267 303h63v-712h-69z" />
    <glyph glyph-name="N" unicode="N" horiz-adv-x="756" 
d="M602 0l-458 619h-3v-619h-69v712h87l453 -611h3v611h69v-712h-82z" />
    <glyph glyph-name="O" unicode="O" horiz-adv-x="815" 
d="M407 -12q-161 0 -264 104t-103 264q0 156 103 262t264 106q166 0 267 -105t101 -263q0 -161 -101.5 -264.5t-266.5 -103.5zM407 664q-135 0 -215.5 -91t-80.5 -217q0 -57 21 -112t58 -99t93.5 -70.5t123.5 -26.5q135 0 216 91.5t81 216.5t-82 216.5t-215 91.5z" />
    <glyph glyph-name="P" unicode="P" horiz-adv-x="548" 
d="M285 300h-142v-300h-69v712h198q250 0 250 -205q0 -105 -65.5 -156t-171.5 -51zM281 653h-138v-293h135q33 0 61.5 6.5t55 22.5t41.5 46t15 73q0 74 -51 109.5t-119 35.5z" />
    <glyph glyph-name="Q" unicode="Q" horiz-adv-x="815" 
d="M520 3l145 -135h-91l-128 122q-13 -2 -39 -2q-161 0 -264 104t-103 264q0 156 103 262t264 106q166 0 267 -105t101 -263q0 -130 -68.5 -225t-186.5 -128zM407 664q-135 0 -215.5 -91t-80.5 -217q0 -57 21 -112t58 -99t93.5 -70.5t123.5 -26.5q135 0 216 92t81 216
q0 125 -82 216.5t-215 91.5z" />
    <glyph glyph-name="R" unicode="R" horiz-adv-x="564" 
d="M457 0l-216 312h-100v-312h-69v712h184q244 0 244 -205q0 -65 -48.5 -120t-138.5 -65l234 -322h-90zM268 653h-127v-282h102q187 0 187 134q0 148 -162 148z" />
    <glyph glyph-name="S" unicode="S" horiz-adv-x="487" 
d="M191 -12q-60 0 -144 26v68q82 -33 155 -33q41 0 78.5 11.5t68 44.5t30.5 81q0 20 -5.5 37.5t-18.5 33t-24 26t-32.5 23t-32 18.5t-36 17.5t-31.5 14.5q-79 38 -119.5 77t-40.5 107q0 86 64 135t166 49q77 0 144 -21v-66q-73 27 -141 27q-29 0 -54.5 -4.5t-51 -16t-41 -36
t-15.5 -59.5q0 -21 10 -40t21 -32t35.5 -28t37 -21.5t42 -20t35.5 -16.5q75 -37 116.5 -80.5t41.5 -118.5q0 -103 -71.5 -153t-186.5 -50z" />
    <glyph glyph-name="T" unicode="T" horiz-adv-x="600" 
d="M335 653v-653h-69v653h-266v59h600v-59h-265z" />
    <glyph glyph-name="U" unicode="U" horiz-adv-x="722" 
d="M362 -12q-129 0 -214 78t-85 222v424h69v-405q0 -113 60.5 -186t169.5 -73t169.5 73t60.5 186v405h68v-424q0 -145 -84.5 -222.5t-213.5 -77.5z" />
    <glyph glyph-name="V" unicode="V" horiz-adv-x="637" 
d="M353 0h-82l-279 712h80l240 -638h3l259 638h71z" />
    <glyph glyph-name="W" unicode="W" horiz-adv-x="1020" 
d="M786 0h-98l-177 653h-2l-177 -653h-98l-237 712h76l207 -643h3l173 643h108l173 -643h3l207 643h76z" />
    <glyph glyph-name="X" unicode="X" horiz-adv-x="611" 
d="M532 0l-232 323l-223 -323h-81l265 377l-241 335h80l211 -291l205 291h77l-244 -343l267 -369h-84z" />
    <glyph glyph-name="Y" unicode="Y" horiz-adv-x="611" 
d="M340 301v-301h-70v301l-272 411h81l229 -349l226 349h80z" />
    <glyph glyph-name="Z" unicode="Z" horiz-adv-x="514" 
d="M13 0v68l406 585h-394v59h465v-68l-405 -585h412v-59h-484z" />
    <glyph glyph-name="bracketleft" unicode="[" horiz-adv-x="278" 
d="M77 -140v896h183v-47h-120v-802h120v-47h-183z" />
    <glyph glyph-name="backslash" unicode="\" horiz-adv-x="278" 
d="M240 -12l-259 736h57l259 -736h-57z" />
    <glyph glyph-name="bracketright" unicode="]" horiz-adv-x="278" 
d="M18 -140v47h120v802h-120v47h183v-896h-183z" />
    <glyph glyph-name="asciicircum" unicode="^" horiz-adv-x="600" 
d="M476 302l-176 370l-176 -370h-56l200 410h64l200 -410h-56z" />
    <glyph glyph-name="underscore" unicode="_" horiz-adv-x="500" 
d="M0 -125v50h500v-50h-500z" />
    <glyph glyph-name="grave" unicode="`" horiz-adv-x="241" 
d="M149 579l-122 144h72l85 -144h-35z" />
    <glyph glyph-name="a" unicode="a" horiz-adv-x="522" 
d="M398 0v55h-2q-74 -67 -178 -67q-78 0 -128.5 44t-50.5 114q0 47 23.5 82.5t60 53.5t72 26t67.5 8q79 0 136 -21v41q0 66 -37 96t-113 30q-70 0 -147 -53v61q71 46 160 46q106 0 152.5 -49t46.5 -154v-313h-62zM398 243q-61 22 -115 22q-24 0 -49 -4t-56.5 -15
t-51.5 -37.5t-20 -65.5q0 -49 36.5 -75t83.5 -26q44 0 92.5 21.5t79.5 55.5v124z" />
    <glyph glyph-name="b" unicode="b" horiz-adv-x="611" 
d="M570 249q0 -111 -73.5 -186t-178.5 -75q-112 0 -191 76h-1v-64h-62v712h62v-269h1q26 30 77.5 51.5t114.5 21.5q110 0 180.5 -76.5t70.5 -190.5zM506 246q0 92 -55.5 154t-145.5 62q-112 0 -179 -89v-242q82 -89 179 -89q89 0 145 58.5t56 145.5z" />
    <glyph glyph-name="c" unicode="c" horiz-adv-x="463" 
d="M316 -12q-121 0 -197.5 76.5t-76.5 187.5q0 121 75.5 192.5t200.5 71.5q51 0 110 -21v-59q-58 26 -104 26q-102 0 -160 -58.5t-58 -151.5q0 -86 59.5 -148t161.5 -62q49 0 107 29v-60q-64 -23 -118 -23z" />
    <glyph glyph-name="d" unicode="d" horiz-adv-x="611" 
d="M547 0h-62v64h-1q-79 -76 -191 -76q-105 0 -178.5 75t-73.5 186q0 114 70.5 190.5t180.5 76.5q63 0 114.5 -21.5t77.5 -51.5h1v269h62v-712zM485 131v242q-67 89 -179 89q-90 0 -145.5 -62t-55.5 -154q0 -87 56 -145.5t145 -58.5q97 0 179 89z" />
    <glyph glyph-name="e" unicode="e" horiz-adv-x="556" 
d="M106 235q0 -87 64 -140t149 -53q83 0 161 38v-63q-81 -29 -166 -29q-128 0 -199.5 75t-71.5 196q0 115 68 186t174 71q113 0 171.5 -67.5t58.5 -182.5v-31h-409zM284 462q-79 0 -126 -50t-53 -125h347q0 81 -46 128t-122 47z" />
    <glyph glyph-name="f" unicode="f" horiz-adv-x="326" 
d="M280 674q-37 0 -61 -9.5t-34.5 -27t-14 -34t-3.5 -39.5v-60h166v-52h-166v-452h-62v452h-105v52h105v32q0 91 34 139.5t128 48.5q36 0 69 -5v-49q-25 4 -56 4z" />
    <glyph glyph-name="g" unicode="g" horiz-adv-x="600" 
d="M537 53q0 -116 -70.5 -184.5t-205.5 -68.5q-80 0 -176 31v64q96 -41 182 -41q94 0 151.5 51.5t57.5 142.5v29h-2q-28 -30 -78 -51.5t-114 -21.5q-106 0 -172 74.5t-66 179.5t68.5 181.5t177.5 76.5q121 0 184 -74h2v68h61v-457zM476 149v209q-20 44 -65 74t-107 30
q-92 0 -144 -60.5t-52 -144.5q0 -86 55.5 -142.5t139.5 -56.5q48 0 97 26.5t76 64.5z" />
    <glyph glyph-name="h" unicode="h" horiz-adv-x="556" 
d="M432 0v266q0 98 -30 147t-105 49q-57 0 -101.5 -33.5t-69.5 -79.5v-349h-62v712h62v-283h2q28 39 76.5 63t104.5 24q89 0 137 -52t48 -152v-312h-62z" />
    <glyph glyph-name="i" unicode="i" horiz-adv-x="202" 
d="M132 622h-62v90h62v-90zM132 0h-62v504h62v-504z" />
    <glyph glyph-name="j" unicode="j" horiz-adv-x="202" 
d="M134 622h-62v90h62v-90zM134 -15q0 -183 -139 -183q-21 0 -47 2v55q4 0 16.5 -1t17.5 -1q50 1 70 28.5t20 90.5v528h62v-519z" />
    <glyph glyph-name="k" unicode="k" horiz-adv-x="500" 
d="M505 0h-87l-294 258v-258h-62v712h62v-440l268 232h83l-276 -235z" />
    <glyph glyph-name="l" unicode="l" horiz-adv-x="202" 
d="M70 0v712h62v-712h-62z" />
    <glyph glyph-name="m" unicode="m" horiz-adv-x="835" 
d="M711 0v319q0 143 -114 143q-94 0 -148 -96v-366h-62v319q0 143 -114 143q-48 0 -87.5 -32t-59.5 -64v-366h-62v504h62v-64h2q25 29 69.5 52.5t85.5 23.5q49 0 91 -25.5t55 -66.5h2q25 40 72.5 66t98.5 26q84 0 127.5 -46t43.5 -129v-341h-62z" />
    <glyph glyph-name="n" unicode="n" horiz-adv-x="556" 
d="M432 0v266q0 98 -30 147t-105 49q-57 0 -101.5 -33.5t-69.5 -79.5v-349h-62v504h62v-71h2q69 83 181 83q89 0 137 -52t48 -152v-312h-62z" />
    <glyph glyph-name="o" unicode="o" horiz-adv-x="611" 
d="M572 252q0 -108 -76 -186t-191 -78q-116 0 -191.5 78t-75.5 186q0 112 75.5 188t191.5 76q117 0 192 -76.5t75 -187.5zM508 252q0 90 -58 150t-145 60q-86 0 -144.5 -60t-58.5 -150q0 -88 56.5 -149t146.5 -61q91 0 147 61.5t56 148.5z" />
    <glyph glyph-name="p" unicode="p" horiz-adv-x="611" 
d="M570 255q0 -114 -70.5 -190.5t-180.5 -76.5q-63 0 -114.5 21.5t-77.5 51.5h-1v-249h-62v692h62v-64h1q79 76 195 76q104 0 176 -75t72 -186zM506 258q0 87 -54 145.5t-143 58.5q-101 0 -183 -89v-242q67 -89 179 -89q90 0 145.5 62t55.5 154z" />
    <glyph glyph-name="q" unicode="q" horiz-adv-x="611" 
d="M547 -188h-62v249h-1q-26 -30 -77.5 -51.5t-114.5 -21.5q-110 0 -180.5 76.5t-70.5 190.5q0 111 73.5 186t178.5 75q112 0 191 -76h1v64h62v-692zM485 131v242q-82 89 -179 89q-89 0 -145 -58.5t-56 -145.5q0 -92 55.5 -154t145.5 -62q112 0 179 89z" />
    <glyph glyph-name="r" unicode="r" horiz-adv-x="336" 
d="M306 460q-124 0 -180 -104v-356h-62v504h62v-68h2q26 36 73 58t87 22q30 0 58 -4v-56q-19 4 -40 4z" />
    <glyph glyph-name="s" unicode="s" horiz-adv-x="400" 
d="M181 -12q-84 0 -139 23v61q68 -30 123 -30q31 0 57.5 6t49.5 26.5t23 54.5q0 14 -6 27t-13.5 21.5t-22.5 18.5t-24 14t-28.5 13t-25.5 12q-64 31 -98 62.5t-34 84.5q0 60 50 97t128 37q52 0 114 -18v-57q-65 21 -104 21q-124 0 -124 -76q0 -19 5.5 -32.5t20.5 -25.5
t27.5 -19t40.5 -21q5 -3 24 -12t26 -12.5t23 -12t23 -14.5t19.5 -15t18 -17.5t12.5 -19.5t9.5 -23t2.5 -25q0 -72 -51.5 -110.5t-126.5 -38.5z" />
    <glyph glyph-name="t" unicode="t" horiz-adv-x="336" 
d="M250 -12q-146 0 -146 153v311h-101v52h101v122l62 19v-141h167v-52h-167v-301q0 -54 22 -81.5t79 -27.5q32 0 66 10v-53q-42 -11 -83 -11z" />
    <glyph glyph-name="u" unicode="u" horiz-adv-x="556" 
d="M492 0h-62v71h-2q-69 -83 -181 -83q-89 0 -137 51t-48 150v315h62v-269q0 -98 30 -145.5t105 -47.5q57 0 101.5 33.5t69.5 79.5v349h62v-504z" />
    <glyph glyph-name="v" unicode="v" horiz-adv-x="459" 
d="M264 0h-70l-192 504h69l157 -431h2l162 431h65z" />
    <glyph glyph-name="w" unicode="w" horiz-adv-x="741" 
d="M743 504l-154 -504h-88l-129 452h-2l-129 -452h-88l-154 504h68l128 -447h2l131 447h86l131 -447h2l128 447h68z" />
    <glyph glyph-name="x" unicode="x" horiz-adv-x="448" 
d="M372 0l-149 226l-148 -226h-75l185 272l-161 232h78l127 -193l129 193h73l-166 -238l183 -266h-76z" />
    <glyph glyph-name="y" unicode="y" horiz-adv-x="463" 
d="M203 2l-203 502h70l165 -419l164 419h64l-270 -692h-63z" />
    <glyph glyph-name="z" unicode="z" horiz-adv-x="429" 
d="M21 0v59l311 393h-297v52h363v-59l-311 -393h321v-52h-387z" />
    <glyph glyph-name="braceleft" unicode="{" horiz-adv-x="322" 
d="M240 -140q-40 0 -73.5 30.5t-33.5 83.5v196q0 50 -27 80.5t-69 37.5v40q42 7 69 37t27 78v199q0 53 33.5 83.5t73.5 30.5h66v-47h-43q-71 0 -71 -98v-187q0 -55 -31.5 -81.5t-70.5 -33.5v-2q102 -16 102 -118v-184q0 -98 71 -98h43v-47h-66z" />
    <glyph glyph-name="bar" unicode="|" horiz-adv-x="222" 
d="M76 -188v938h69v-938h-69z" />
    <glyph glyph-name="braceright" unicode="}" horiz-adv-x="322" 
d="M285 288q-42 -7 -69 -37.5t-27 -80.5v-196q0 -53 -33.5 -83.5t-73.5 -30.5h-66v47h43q71 0 71 98v184q0 102 102 118v2q-39 7 -70.5 33.5t-31.5 81.5v187q0 98 -71 98h-43v47h66q40 0 73.5 -30.5t33.5 -83.5v-199q0 -48 27 -78t69 -37v-40z" />
    <glyph glyph-name="asciitilde" unicode="~" horiz-adv-x="600" 
d="M413 180q-39 0 -113 38q-6 3 -25.5 14t-31 16.5t-28 11t-29.5 5.5q-48 0 -93 -73l-35 29q20 42 54.5 73.5t74.5 31.5q39 0 113 -38q6 -3 25.5 -14t31 -16.5t28 -11t29.5 -5.5q48 0 93 73l37 -24q-21 -43 -56 -76.5t-75 -33.5z" />
    <glyph glyph-name="sterling" unicode="&#xa3;" 
d="M398 664q-94 0 -138 -53.5t-44 -144.5v-67h177v-59h-177v-281h270v-59h-441v59h102v281h-88v59h88v75q0 112 62 180.5t181 68.5q58 0 109 -15v-62q-47 18 -101 18z" />
    <glyph glyph-name="currency" unicode="&#xa4;" horiz-adv-x="556" 
d="M495 103l-57 59q-70 -61 -160 -61q-91 0 -159 60l-58 -58l-29 29l58 60q-60 70 -60 157q0 93 61 159l-59 57l29 30l58 -57q72 59 159 59q88 0 161 -59l56 57l30 -30l-57 -57q58 -66 58 -159q0 -88 -58 -157l57 -60zM278 546q-79 0 -134.5 -58.5t-55.5 -138.5
q0 -82 55.5 -139.5t134.5 -57.5q81 1 135.5 59.5t54.5 137.5t-54.5 138.5t-135.5 58.5z" />
    <glyph glyph-name="brokenbar" unicode="&#xa6;" horiz-adv-x="222" 
d="M145 450h-69v300h69v-300zM145 -188h-69v300h69v-300z" />
    <glyph glyph-name="section" unicode="&#xa7;" 
d="M395 152q69 -44 69 -108q0 -83 -70.5 -126.5t-161.5 -43.5q-82 0 -153 21v61q71 -28 167 -28q57 0 102.5 28t45.5 84q0 22 -12 39.5t-35 30t-41.5 20t-48 16.5t-38.5 12q-74 27 -113.5 60.5t-39.5 92.5q0 49 14.5 81.5t64.5 61.5q-42 26 -58.5 52t-16.5 63q0 73 64.5 114
t150.5 41q60 0 135 -16l-1 -66q-64 22 -120 22q-37 0 -69 -5.5t-61 -27t-29 -57.5q0 -17 5.5 -31.5t19.5 -26.5t24.5 -20.5t33 -17.5t31.5 -12.5t34.5 -11.5t28.5 -9q76 -26 115.5 -57.5t39.5 -89.5q0 -46 -15.5 -78t-61.5 -68zM319 382q-15 7 -62 23t-71 29
q-57 -43 -57 -102q0 -64 91 -104q22 -9 69 -25t67 -25q19 21 28 32.5t17 29.5t8 37q0 64 -90 105z" />
    <glyph glyph-name="copyright" unicode="&#xa9;" horiz-adv-x="800" 
d="M400 -11q-152 0 -259.5 108t-107.5 260t107.5 259.5t259.5 107.5t260 -107.5t108 -259.5t-108 -260t-260 -108zM400 668q-128 0 -219.5 -91t-91.5 -220t91.5 -220.5t219.5 -91.5q129 0 220 91.5t91 220.5t-91 220t-220 91zM423 143q-101 0 -161.5 58.5t-60.5 157.5
q0 95 62 153.5t160 58.5q46 0 87 -17v-44q-39 19 -85 19q-77 0 -124.5 -48t-47.5 -124q0 -77 48 -124.5t121 -47.5q53 0 92 17v-45q-38 -14 -91 -14z" />
    <glyph glyph-name="guillemotleft" unicode="&#xab;" horiz-adv-x="476" 
d="M379 66l-141 203l141 203h56l-130 -203l130 -203h-56zM182 66l-141 203l141 203h56l-130 -203l130 -203h-56z" />
    <glyph glyph-name="logicalnot" unicode="&#xac;" horiz-adv-x="600" 
d="M496 106v233h-449v60h506v-293h-57z" />
    <glyph glyph-name="registered" unicode="&#xae;" horiz-adv-x="400" 
d="M381 544q0 -74 -53 -127.5t-128 -53.5q-74 0 -127 53t-53 128q0 74 52.5 127t127.5 53t128 -52.5t53 -127.5zM347 544h1q0 61 -43.5 104.5t-104.5 43.5t-104 -43.5t-43 -104.5t43 -104.5t104 -43.5t104 43.5t43 104.5zM233 591h1q0 31 -44 31h-27v-64h23q47 0 47 33z
M224 539l57 -98h-33l-53 93q-5 -1 -13 -1h-18v-92h-30v206h49q37 0 59 -11t22 -44q0 -39 -40 -53z" />
    <glyph glyph-name="degree" unicode="&#xb0;" horiz-adv-x="400" 
d="M200 435q-60 0 -103 42t-43 102t43 102t103 42t103 -42t43 -102t-43 -102t-103 -42zM200 688q-46 0 -78.5 -31t-32.5 -78q0 -46 33 -78.5t78 -32.5t78 32.5t33 78.5q0 47 -32.5 78t-78.5 31z" />
    <glyph glyph-name="plusminus" unicode="&#xb1;" horiz-adv-x="600" 
d="M329 288v-162h-58v162h-224v57h224v161h58v-161h224v-57h-224zM47 0v57h506v-57h-506z" />
    <glyph glyph-name="mu" unicode="&#xb5;" horiz-adv-x="556" 
d="M437 0v95h-3q-32 -40 -86.5 -69.5t-104.5 -29.5q-61 0 -123 34v-218h-62v692h62v-364q15 -42 50.5 -71t83.5 -29q57 0 104 35t78 86v343h62v-504h-61z" />
    <glyph glyph-name="mu" unicode="&#x3bc;" horiz-adv-x="556" 
d="M437 0v95h-3q-32 -40 -86.5 -69.5t-104.5 -29.5q-61 0 -123 34v-218h-62v692h62v-364q15 -42 50.5 -71t83.5 -29q57 0 104 35t78 86v343h62v-504h-61z" />
    <glyph glyph-name="paragraph" unicode="&#xb6;" horiz-adv-x="600" 
d="M465 -112v782h-133v-782h-62v476q-110 0 -170 47t-60 123q0 178 236 178h251v-824h-62z" />
    <glyph glyph-name="periodcentered" unicode="&#xb7;" horiz-adv-x="259" 
d="M88 242v106h82v-106h-82z" />
    <glyph glyph-name="periodcentered" unicode="&#x2219;" horiz-adv-x="259" 
d="M88 242v106h82v-106h-82z" />
    <glyph glyph-name="guillemotright" unicode="&#xbb;" horiz-adv-x="476" 
d="M435 269l-141 -203h-56l130 203l-130 203h56zM238 269l-141 -203h-56l130 203l-130 203h56z" />
    <glyph glyph-name="divide" unicode="&#xf7;" horiz-adv-x="600" 
d="M47 224v58h506v-58h-506zM254 -17v106h92v-106h-92zM254 417v106h92v-106h-92z" />
    <glyph glyph-name="florin" unicode="&#x192;" horiz-adv-x="500" 
d="M490 671q-22 4 -35 4q-61 0 -85.5 -33t-38.5 -102l-26 -127h135l-7 -38h-136l-78 -401q-11 -54 -21 -85.5t-29.5 -60.5t-51 -41t-78.5 -12q-22 0 -37 3l10 47q7 -1 23 -1q31 0 53 12t34.5 35t18.5 42.5t12 48.5l79 413h-122l6 38h123l26 124q10 45 20 73.5t29 57t50.5 42
t76.5 13.5q24 0 57 -7z" />
    <glyph glyph-name="Delta" unicode="&#x394;" horiz-adv-x="656" 
d="M36 0l314 707l278 -707h-592zM330 589l-253 -564h476z" />
    <glyph glyph-name="Delta" unicode="&#x2206;" horiz-adv-x="656" 
d="M36 0l314 707l278 -707h-592zM330 589l-253 -564h476z" />
    <glyph glyph-name="afii10023" unicode="&#x401;" horiz-adv-x="500" 
d="M340 759v90h64v-90h-64zM143 759v90h64v-90h-64zM72 0v712h409v-59h-340v-253h291v-59h-291v-282h342v-59h-411z" />
    <glyph glyph-name="afii10051" unicode="&#x402;" horiz-adv-x="782" 
d="M493 -78q-33 0 -69 9v60q38 -8 54 -8q89 0 144.5 61.5t55.5 153.5q0 90 -50.5 146t-149.5 56q-93 0 -174 -84v-316h-69v653h-235v59h610v-59h-306v-263q81 71 188 71q114 0 185 -75.5t71 -190.5q0 -116 -72 -194.5t-183 -78.5z" />
    <glyph glyph-name="afii10052" unicode="&#x403;" horiz-adv-x="481" 
d="M138 653v-653h-69v712h412v-59h-343zM271 763h-51l86 129h75z" />
    <glyph glyph-name="afii10053" unicode="&#x404;" horiz-adv-x="630" 
d="M434 -12q-175 0 -286 102t-111 268q0 161 113.5 263.5t283.5 102.5q99 0 166 -25v-69q-76 34 -162 34q-128 0 -219.5 -73.5t-107.5 -190.5h337v-59h-340q6 -130 101 -211.5t225 -81.5q86 0 167 32v-67q-67 -25 -167 -25z" />
    <glyph glyph-name="afii10054" unicode="&#x405;" horiz-adv-x="487" 
d="M191 -12q-60 0 -144 26v68q82 -33 155 -33q41 0 78.5 11.5t68 44.5t30.5 81q0 20 -5.5 37.5t-18.5 33t-24 26t-32.5 23t-32 18.5t-36 17.5t-31.5 14.5q-79 38 -119.5 77t-40.5 107q0 86 64 135t166 49q77 0 144 -21v-66q-73 27 -141 27q-29 0 -54.5 -4.5t-51 -16t-41 -36
t-15.5 -59.5q0 -21 10 -40t21 -32t35.5 -28t37 -21.5t42 -20t35.5 -16.5q75 -37 116.5 -80.5t41.5 -118.5q0 -103 -71.5 -153t-186.5 -50z" />
    <glyph glyph-name="afii10055" unicode="&#x406;" horiz-adv-x="219" 
d="M75 0v712h69v-712h-69z" />
    <glyph glyph-name="afii10056" unicode="&#x407;" horiz-adv-x="219" 
d="M173 759v90h64v-90h-64zM-16 759v90h64v-90h-64zM75 0v712h69v-712h-69z" />
    <glyph glyph-name="afii10057" unicode="&#x408;" horiz-adv-x="343" 
d="M73 -12q-39 0 -73 8v62q43 -8 55 -8q81 0 113.5 41.5t32.5 116.5v504h68v-515q0 -88 -45.5 -148.5t-150.5 -60.5z" />
    <glyph glyph-name="afii10058" unicode="&#x409;" horiz-adv-x="981" 
d="M700 0h-208v653h-236v-231q0 -71 -3 -124.5t-14.5 -115t-30.5 -101t-54.5 -66t-84.5 -26.5q-37 0 -69 8v58q27 -6 52 -6q42 0 69.5 28t41 87t18.5 127t5 169v252h375v-302h151q107 0 174.5 -50t67.5 -155q0 -205 -254 -205zM702 349h-141v-290h143q70 0 124 36t54 109
q0 42 -16 72.5t-44 45t-57 21t-63 6.5z" />
    <glyph glyph-name="afii10059" unicode="&#x40a;" horiz-adv-x="981" 
d="M698 0h-208v350h-349v-350h-69v712h69v-302h349v302h69v-302h151q107 0 174.5 -50t67.5 -155q0 -205 -254 -205zM700 349h-141v-290h143q70 0 124 36t54 109q0 42 -16 72.5t-44 45t-57 21t-63 6.5z" />
    <glyph glyph-name="afii10060" unicode="&#x40b;" horiz-adv-x="782" 
d="M667 0v186q0 110 -42 152t-152 42q-68 0 -169 -23v-357h-69v653h-235v59h610v-59h-306v-238q84 25 169 25q134 0 198.5 -51.5t64.5 -191.5v-197h-69z" />
    <glyph glyph-name="afii10061" unicode="&#x40c;" horiz-adv-x="611" 
d="M286 763h-51l86 129h75zM522 0l-383 371v-371h-69v712h69v-332l349 332h93l-357 -336l396 -376h-98z" />
    <glyph glyph-name="afii10062" unicode="&#x40e;" horiz-adv-x="604" 
d="M308 740q-97 0 -131 102l46 16q20 -68 84 -68q66 0 86 68l46 -16q-34 -102 -131 -102zM242 0h-77l104 198l-274 514h78l235 -442l232 442h74z" />
    <glyph glyph-name="afii10145" unicode="&#x40f;" horiz-adv-x="722" 
d="M394 0v-163h-67v163h-260v712h69v-653h452v653h68v-712h-262z" />
    <glyph glyph-name="afii10017" unicode="&#x410;" horiz-adv-x="667" 
d="M605 0l-79 190h-386l-78 -190h-70l301 712h84l298 -712h-70zM333 656l-172 -416h344z" />
    <glyph glyph-name="afii10018" unicode="&#x411;" horiz-adv-x="564" 
d="M262 0h-190v712h398v-59h-329v-245h135q114 0 180.5 -50t66.5 -158q0 -200 -261 -200zM279 348h-138v-289h126q32 0 61.5 6t58.5 20.5t47 44t18 70.5q0 43 -15.5 73.5t-42.5 46t-55 22t-60 6.5z" />
    <glyph glyph-name="afii10019" unicode="&#x412;" horiz-adv-x="564" 
d="M269 0h-197v712h205q111 0 168.5 -44.5t57.5 -125.5q0 -142 -134 -173v-3q74 -7 114.5 -57.5t40.5 -123.5q0 -94 -69.5 -139.5t-185.5 -45.5zM292 653h-151v-256h82q36 0 60 1.5t55.5 9t50 21t32 40t13.5 63.5q0 66 -42 93.5t-100 27.5zM232 338h-91v-279h123
q189 0 189 133q0 39 -14.5 67t-35 43t-53 23.5t-58 10.5t-60.5 2z" />
    <glyph glyph-name="afii10020" unicode="&#x413;" horiz-adv-x="481" 
d="M138 653v-653h-69v712h412v-59h-343z" />
    <glyph glyph-name="afii10021" unicode="&#x414;" horiz-adv-x="702" 
d="M624 -163v163h-551v-163h-66v222h69q50 56 84 173.5t37 242.5l5 237h404v-653h85v-222h-67zM537 653h-271l-3 -214q-3 -191 -106 -380h380v594z" />
    <glyph glyph-name="afii10022" unicode="&#x415;" horiz-adv-x="500" 
d="M72 0v712h409v-59h-340v-253h291v-59h-291v-282h342v-59h-411z" />
    <glyph glyph-name="afii10024" unicode="&#x416;" horiz-adv-x="970" 
d="M887 0l-368 366v-366h-69v366l-368 -366h-90l376 379l-342 333h86l338 -334v334h69v-334l338 334h86l-342 -333l376 -379h-90z" />
    <glyph glyph-name="afii10025" unicode="&#x417;" horiz-adv-x="495" 
d="M202 -12q-87 0 -169 28v68q93 -36 160 -36q80 0 136 34t56 105q0 154 -204 154h-27v59h22q46 0 89 12.5t77.5 48t34.5 87.5q0 116 -158 116q-70 0 -159 -34v62q26 12 76 22t87 10q103 0 162.5 -42.5t59.5 -131.5q0 -66 -35.5 -113.5t-100.5 -61.5v-3q146 -28 146 -180
q0 -98 -71.5 -151t-181.5 -53z" />
    <glyph glyph-name="afii10026" unicode="&#x418;" horiz-adv-x="722" 
d="M587 0v617h-3l-436 -617h-81v712h69v-620h3l437 620h80v-712h-69z" />
    <glyph glyph-name="afii10027" unicode="&#x419;" horiz-adv-x="722" 
d="M364 740q-97 0 -131 102l46 16q20 -68 84 -68q66 0 86 68l46 -16q-34 -102 -131 -102zM587 0v617h-3l-436 -617h-81v712h69v-620h3l437 620h80v-712h-69z" />
    <glyph glyph-name="afii10028" unicode="&#x41a;" horiz-adv-x="611" 
d="M522 0l-383 371v-371h-69v712h69v-332l349 332h93l-357 -336l396 -376h-98z" />
    <glyph glyph-name="afii10029" unicode="&#x41b;" horiz-adv-x="696" 
d="M555 0v653h-299v-231q0 -71 -3 -124.5t-14.5 -115t-30.5 -101t-54.5 -66t-84.5 -26.5q-37 0 -69 8v58q27 -6 52 -6q42 0 69.5 28t41 87t18.5 127t5 169v252h438v-712h-69z" />
    <glyph glyph-name="afii10030" unicode="&#x41c;" horiz-adv-x="807" 
d="M666 0v612h-3l-260 -292l-259 292h-3v-612h-69v712h64l269 -303l267 303h63v-712h-69z" />
    <glyph glyph-name="afii10031" unicode="&#x41d;" horiz-adv-x="722" 
d="M588 0v341h-452v-341h-69v712h69v-312h452v312h68v-712h-68z" />
    <glyph glyph-name="afii10032" unicode="&#x41e;" horiz-adv-x="815" 
d="M407 -12q-161 0 -264 104t-103 264q0 156 103 262t264 106q166 0 267 -105t101 -263q0 -161 -101.5 -264.5t-266.5 -103.5zM407 664q-135 0 -215.5 -91t-80.5 -217q0 -57 21 -112t58 -99t93.5 -70.5t123.5 -26.5q135 0 216 91.5t81 216.5t-82 216.5t-215 91.5z" />
    <glyph glyph-name="afii10033" unicode="&#x41f;" horiz-adv-x="722" 
d="M587 0v653h-451v-653h-69v712h589v-712h-69z" />
    <glyph glyph-name="afii10034" unicode="&#x420;" horiz-adv-x="548" 
d="M285 300h-142v-300h-69v712h198q250 0 250 -205q0 -105 -65.5 -156t-171.5 -51zM281 653h-138v-293h135q33 0 61.5 6.5t55 22.5t41.5 46t15 73q0 74 -51 109.5t-119 35.5z" />
    <glyph glyph-name="afii10035" unicode="&#x421;" horiz-adv-x="630" 
d="M432 -12q-175 0 -286 102t-111 268q0 161 113.5 263.5t283.5 102.5q99 0 166 -25v-69q-76 34 -162 34q-141 0 -235.5 -87t-94.5 -221q0 -136 96 -222t230 -86q86 0 167 32v-67q-67 -25 -167 -25z" />
    <glyph glyph-name="afii10036" unicode="&#x422;" horiz-adv-x="600" 
d="M335 653v-653h-69v653h-266v59h600v-59h-265z" />
    <glyph glyph-name="afii10037" unicode="&#x423;" horiz-adv-x="604" 
d="M242 0h-77l104 198l-274 514h78l235 -442l232 442h74z" />
    <glyph glyph-name="afii10038" unicode="&#x424;" horiz-adv-x="800" 
d="M434 76v-84h-69v84q-143 2 -236.5 86t-93.5 207q0 129 89 208.5t241 83.5v58h69v-58q151 -4 240.5 -83.5t89.5 -208.5q0 -123 -93.5 -207t-236.5 -86zM434 602v-466q121 2 190 67.5t69 165.5q0 101 -68.5 165t-190.5 68zM365 602q-122 -4 -190.5 -68t-68.5 -165
q0 -100 69 -165.5t190 -67.5v466z" />
    <glyph glyph-name="afii10039" unicode="&#x425;" horiz-adv-x="611" 
d="M532 0l-232 323l-223 -323h-81l265 377l-241 335h80l211 -291l205 291h77l-244 -343l267 -369h-84z" />
    <glyph glyph-name="afii10040" unicode="&#x426;" horiz-adv-x="722" 
d="M651 -163v163h-584v712h69v-653h434v653h69v-653h79v-222h-67z" />
    <glyph glyph-name="afii10041" unicode="&#x427;" horiz-adv-x="617" 
d="M479 0v328q-85 -26 -169 -26q-134 0 -198 52t-64 192v166h69v-156q0 -110 41.5 -151.5t151.5 -41.5q62 0 169 22v327h69v-712h-69z" />
    <glyph glyph-name="afii10042" unicode="&#x428;" horiz-adv-x="1057" 
d="M70 0v712h69v-653h355v653h69v-653h355v653h69v-712h-917z" />
    <glyph glyph-name="afii10043" unicode="&#x429;" horiz-adv-x="1065" 
d="M994 -163v163h-926v712h69v-653h355v653h69v-653h355v653h69v-653h76v-222h-67z" />
    <glyph glyph-name="afii10044" unicode="&#x42a;" horiz-adv-x="692" 
d="M424 0h-213v653h-211v59h279v-292h157q105 0 170.5 -52t65.5 -158q0 -210 -248 -210zM426 360h-147v-301h149q67 0 119.5 38t52.5 112q0 81 -51 116t-123 35z" />
    <glyph glyph-name="afii10045" unicode="&#x42b;" horiz-adv-x="778" 
d="M645 0v712h69v-712h-69zM285 0h-213v712h69v-292h156q105 0 170.5 -52t65.5 -158q0 -210 -248 -210zM287 360h-146v-301h148q67 0 120 38t53 112q0 81 -51.5 116t-123.5 35z" />
    <glyph glyph-name="afii10046" unicode="&#x42c;" horiz-adv-x="556" 
d="M283 0h-213v712h69v-292h156q105 0 170.5 -52t65.5 -158q0 -210 -248 -210zM285 360h-146v-301h148q67 0 120 38t53 112q0 81 -51.5 116t-123.5 35z" />
    <glyph glyph-name="afii10047" unicode="&#x42d;" horiz-adv-x="630" 
d="M198 -12q-101 0 -168 25v67q81 -32 168 -32q129 0 224 81.5t101 211.5h-340v59h338q-16 117 -107.5 190.5t-219.5 73.5q-87 0 -163 -34v69q67 25 167 25q169 0 282.5 -102.5t113.5 -263.5q0 -166 -111 -268t-285 -102z" />
    <glyph glyph-name="afii10048" unicode="&#x42e;" horiz-adv-x="991" 
d="M618 -12q-149 0 -236.5 94.5t-95.5 258.5h-149v-341h-69v712h69v-312h150q16 150 102.5 237t228.5 87q156 0 244.5 -103t88.5 -265q0 -166 -88.5 -267t-244.5 -101zM618 664q-126 0 -193 -90t-67 -218q0 -81 25.5 -148.5t86 -113.5t148.5 -46t149 46t87 113.5t26 148.5
q0 60 -16.5 114t-47.5 98t-82.5 70t-115.5 26z" />
    <glyph glyph-name="afii10049" unicode="&#x42f;" horiz-adv-x="575" 
d="M434 0v296h-100l-237 -296h-93l254 306q-91 11 -143.5 71t-52.5 125q0 210 256 210h185v-712h-69zM434 653h-128q-81 0 -125.5 -40t-44.5 -113q0 -68 49.5 -106.5t140.5 -38.5h108v298z" />
    <glyph glyph-name="afii10065" unicode="&#x430;" horiz-adv-x="522" 
d="M398 0v55h-2q-74 -67 -178 -67q-78 0 -128.5 44t-50.5 114q0 47 23.5 82.5t60 53.5t72 26t67.5 8q79 0 136 -21v41q0 66 -37 96t-113 30q-70 0 -147 -53v61q71 46 160 46q106 0 152.5 -49t46.5 -154v-313h-62zM398 243q-61 22 -115 22q-24 0 -49 -4t-56.5 -15
t-51.5 -37.5t-20 -65.5q0 -49 36.5 -75t83.5 -26q44 0 92.5 21.5t79.5 55.5v124z" />
    <glyph glyph-name="afii10066" unicode="&#x431;" horiz-adv-x="611" 
d="M575 248q0 -107 -73 -183.5t-186 -76.5q-119 0 -193 79t-74 212q0 108 15 180.5t53.5 126t104.5 79t166 28.5q80 4 122 12v-60q-41 -6 -118 -9q-145 -5 -207.5 -61t-87.5 -203h3q34 69 93.5 102.5t130.5 33.5q107 0 179 -76t72 -184zM511 248q0 89 -54 147.5t-139 58.5
t-145 -59t-60 -147q0 -86 57 -146t146 -60q90 0 142.5 60t52.5 146z" />
    <glyph glyph-name="afii10067" unicode="&#x432;" horiz-adv-x="522" 
d="M310 0h-245v504h234q67 0 110 -33t43 -84q0 -42 -21.5 -74.5t-52.5 -42.5v-2q40 -5 72 -37t32 -92q0 -64 -49 -101.5t-123 -37.5zM280 452h-153v-161h149q47 0 79.5 20t32.5 66q0 75 -108 75zM300 241h-173v-189h166q125 0 125 97q0 46 -33.5 69t-84.5 23z" />
    <glyph glyph-name="afii10068" unicode="&#x433;" horiz-adv-x="400" 
d="M128 452v-452h-62v504h333v-52h-271z" />
    <glyph glyph-name="afii10069" unicode="&#x434;" horiz-adv-x="560" 
d="M483 -150v150h-414v-150h-61v202h50q32 39 57 122.5t30 195.5l6 134h334v-452h59v-202h-61zM423 452h-216l-4 -98q-9 -200 -76 -302h296v400z" />
    <glyph glyph-name="afii10070" unicode="&#x435;" horiz-adv-x="556" 
d="M106 235q0 -87 64 -140t149 -53q83 0 161 38v-63q-81 -29 -166 -29q-128 0 -199.5 75t-71.5 196q0 115 68 186t174 71q113 0 171.5 -67.5t58.5 -182.5v-31h-409zM284 462q-79 0 -126 -50t-53 -125h347q0 81 -46 128t-122 47z" />
    <glyph glyph-name="afii10072" unicode="&#x436;" horiz-adv-x="722" 
d="M330 265l-254 -265h-83l267 272l-236 232h79l227 -231v231h62v-231l227 231h79l-236 -232l267 -272h-83l-254 265v-265h-62v265z" />
    <glyph glyph-name="afii10073" unicode="&#x437;" horiz-adv-x="430" 
d="M187 -12q-104 0 -158 23v60q67 -29 141 -29q68 0 112 25t44 75q0 98 -125 98h-45v52h41q50 0 86 21.5t36 69.5q0 79 -131 79q-67 0 -137 -32v57q81 29 156 29q79 0 126 -32.5t47 -90.5q0 -45 -26.5 -80.5t-72.5 -43.5v-2q53 -3 81 -35.5t28 -88.5q0 -71 -56 -113
t-147 -42z" />
    <glyph glyph-name="afii10074" unicode="&#x438;" horiz-adv-x="556" 
d="M432 0v421h-2l-284 -421h-84v504h62v-430h2l292 430h76v-504h-62z" />
    <glyph glyph-name="afii10075" unicode="&#x439;" horiz-adv-x="556" 
d="M408 696q-33 -100 -129 -100q-95 0 -129 100l46 16q20 -66 82 -66q65 0 85 66zM494 0h-62v421h-2l-284 -421h-84v504h62v-430h2l292 430h76v-504z" />
    <glyph glyph-name="afii10076" unicode="&#x43a;" horiz-adv-x="481" 
d="M64 0v504h62v-230l252 230h82l-264 -233l295 -271h-84l-281 262v-262h-62z" />
    <glyph glyph-name="afii10077" unicode="&#x43b;" 
d="M413 0v452h-222v-156q0 -42 -1 -68.5t-5 -67t-14 -66t-26.5 -51.5t-43.5 -38.5t-63 -12.5q-18 0 -40 4v55q17 -3 35 -3q22 0 38 7t26.5 26t17 41.5t9.5 63t4 80.5t1 104v134h346v-504h-62z" />
    <glyph glyph-name="afii10078" unicode="&#x43c;" horiz-adv-x="630" 
d="M315 223l-189 197h-2v-420h-62v504h62l191 -201l192 201h61v-504h-61v420h-2z" />
    <glyph glyph-name="afii10079" unicode="&#x43d;" horiz-adv-x="556" 
d="M432 0v240h-308v-240h-62v504h62v-212h308v212h62v-504h-62z" />
    <glyph glyph-name="afii10080" unicode="&#x43e;" horiz-adv-x="611" 
d="M572 252q0 -108 -76 -186t-191 -78q-116 0 -191.5 78t-75.5 186q0 112 75.5 188t191.5 76q117 0 192 -76.5t75 -187.5zM508 252q0 90 -58 150t-145 60q-86 0 -144.5 -60t-58.5 -150q0 -88 56.5 -149t146.5 -61q91 0 147 61.5t56 148.5z" />
    <glyph glyph-name="afii10081" unicode="&#x43f;" horiz-adv-x="556" 
d="M432 0v452h-308v-452h-62v504h432v-504h-62z" />
    <glyph glyph-name="afii10082" unicode="&#x440;" horiz-adv-x="611" 
d="M570 255q0 -114 -70.5 -190.5t-180.5 -76.5q-63 0 -114.5 21.5t-77.5 51.5h-1v-249h-62v692h62v-64h1q79 76 195 76q104 0 176 -75t72 -186zM506 258q0 87 -54 145.5t-143 58.5q-101 0 -183 -89v-242q67 -89 179 -89q90 0 145.5 62t55.5 154z" />
    <glyph glyph-name="afii10083" unicode="&#x441;" horiz-adv-x="463" 
d="M316 -12q-121 0 -197.5 76.5t-76.5 187.5q0 121 75.5 192.5t200.5 71.5q51 0 110 -21v-59q-58 26 -104 26q-102 0 -160 -58.5t-58 -151.5q0 -86 59.5 -148t161.5 -62q49 0 107 29v-60q-64 -23 -118 -23z" />
    <glyph glyph-name="afii10084" unicode="&#x442;" horiz-adv-x="436" 
d="M249 452v-452h-62v452h-187v52h436v-52h-187z" />
    <glyph glyph-name="afii10085" unicode="&#x443;" horiz-adv-x="463" 
d="M203 2l-203 502h70l165 -419l164 419h64l-270 -692h-63z" />
    <glyph glyph-name="afii10086" unicode="&#x444;" horiz-adv-x="706" 
d="M670 252q0 -107 -79 -184t-207 -77v-179h-62v179q-128 0 -207 77t-79 184q0 110 77 185.5t209 75.5v199h62v-199q132 0 209 -75.5t77 -185.5zM606 252q0 87 -59 148t-163 61v-418q106 0 164 63.5t58 145.5zM322 43v418q-104 0 -163 -61t-59 -148q0 -82 58 -145.5
t164 -63.5z" />
    <glyph glyph-name="afii10087" unicode="&#x445;" horiz-adv-x="448" 
d="M372 0l-149 226l-148 -226h-75l185 272l-161 232h78l127 -193l129 193h73l-166 -238l183 -266h-76z" />
    <glyph glyph-name="afii10088" unicode="&#x446;" horiz-adv-x="576" 
d="M507 -150v150h-445v504h62v-452h312v452h62v-452h71v-202h-62z" />
    <glyph glyph-name="afii10089" unicode="&#x447;" horiz-adv-x="522" 
d="M399 0v227q-31 -14 -80 -24t-87 -10q-99 0 -141.5 41t-42.5 139v131h62v-103q0 -48 4 -74t19 -46t42.5 -27t75.5 -7q38 0 81.5 11t66.5 24v222h62v-504h-62z" />
    <glyph glyph-name="afii10090" unicode="&#x448;" horiz-adv-x="813" 
d="M62 0v504h62v-452h251v452h62v-452h252v452h62v-504h-689z" />
    <glyph glyph-name="afii10091" unicode="&#x449;" horiz-adv-x="826" 
d="M819 -150h-59v150h-695v504h62v-452h251v452h62v-452h252v452h62v-452h65v-202z" />
    <glyph glyph-name="afii10092" unicode="&#x44a;" horiz-adv-x="589" 
d="M156 452h-156v52h217v-196h174q73 0 121.5 -41.5t48.5 -113.5q0 -71 -48 -112t-126 -41h-231v452zM376 256h-159v-204h166q51 0 82.5 24.5t31.5 73.5q0 56 -35 81t-86 25z" />
    <glyph glyph-name="afii10093" unicode="&#x44b;" horiz-adv-x="667" 
d="M543 0v504h62v-504h-62zM284 0h-222v504h62v-196h164q73 0 121.5 -41.5t48.5 -113.5q0 -71 -48 -112t-126 -41zM273 256h-149v-204h156q51 0 82.5 24.5t31.5 73.5q0 56 -35 81t-86 25z" />
    <glyph glyph-name="afii10094" unicode="&#x44c;" horiz-adv-x="500" 
d="M296 0h-232v504h62v-196h174q73 0 121.5 -41.5t48.5 -113.5q0 -71 -48 -112t-126 -41zM285 256h-159v-204h166q51 0 82.5 24.5t31.5 73.5q0 56 -35 81t-86 25z" />
    <glyph glyph-name="afii10095" unicode="&#x44d;" horiz-adv-x="463" 
d="M422 252q0 -111 -76.5 -187.5t-197.5 -76.5q-54 0 -118 23v60q58 -29 107 -29q99 0 158.5 59t62.5 142h-234v52h230q-12 76 -68.5 121.5t-145.5 45.5q-46 0 -104 -26v59q59 21 110 21q125 0 200.5 -71.5t75.5 -192.5z" />
    <glyph glyph-name="afii10096" unicode="&#x44e;" horiz-adv-x="790" 
d="M499 -12q-107 0 -174 69t-77 183h-122v-240h-62v504h62v-212h123q16 103 82 163.5t168 60.5q114 0 182.5 -74t68.5 -190q0 -112 -69.5 -188t-181.5 -76zM499 462q-86 0 -136.5 -61.5t-50.5 -148.5q0 -86 48.5 -148t138.5 -62t138.5 62t48.5 148q0 87 -50.5 148.5
t-136.5 61.5z" />
    <glyph glyph-name="afii10097" unicode="&#x44f;" horiz-adv-x="500" 
d="M376 0v200h-108l-180 -200h-80l182 205v2q-60 7 -97.5 51t-37.5 97q0 65 46.5 107t120.5 42h216v-504h-62zM376 452h-149q-49 0 -78.5 -29t-29.5 -71q0 -49 35 -74.5t86 -25.5h136v200z" />
    <glyph glyph-name="afii10071" unicode="&#x451;" horiz-adv-x="556" 
d="M342 622v90h64v-90h-64zM145 622v90h64v-90h-64zM106 235q0 -87 64 -140t149 -53q83 0 161 38v-63q-81 -29 -166 -29q-128 0 -199.5 75t-71.5 196q0 115 68 186t174 71q113 0 171.5 -67.5t58.5 -182.5v-31h-409zM284 462q-79 0 -126 -50t-53 -125h347q0 81 -46 128
t-122 47z" />
    <glyph glyph-name="afii10099" unicode="&#x452;" horiz-adv-x="574" 
d="M548 133q0 -106 -66.5 -182.5t-171.5 -76.5q-16 0 -55 3v53q4 0 16.5 -1t17.5 -1q84 0 139.5 58.5t55.5 145.5q0 84 -52 142t-144 58q-98 0 -152 -70v-262h-62v452h-71v52h71v208h62v-208h257v-52h-257v-123q64 57 166 57q109 0 177.5 -74t68.5 -179z" />
    <glyph glyph-name="afii10100" unicode="&#x453;" horiz-adv-x="400" 
d="M216 583h-51l86 129h75zM128 452v-452h-62v504h333v-52h-271z" />
    <glyph glyph-name="afii10101" unicode="&#x454;" horiz-adv-x="463" 
d="M433 11q-64 -23 -118 -23q-121 0 -197.5 76.5t-76.5 187.5q0 121 75.5 192.5t200.5 71.5q51 0 110 -21v-59q-59 26 -104 26q-89 0 -145.5 -45.5t-68.5 -121.5h230v-52h-234q3 -83 62.5 -142t158.5 -59q49 0 107 29v-60z" />
    <glyph glyph-name="afii10102" unicode="&#x455;" horiz-adv-x="400" 
d="M181 -12q-84 0 -139 23v61q68 -30 123 -30q31 0 57.5 6t49.5 26.5t23 54.5q0 14 -6 27t-13.5 21.5t-22.5 18.5t-24 14t-28.5 13t-25.5 12q-64 31 -98 62.5t-34 84.5q0 60 50 97t128 37q52 0 114 -18v-57q-65 21 -104 21q-124 0 -124 -76q0 -19 5.5 -32.5t20.5 -25.5
t27.5 -19t40.5 -21q5 -3 24 -12t26 -12.5t23 -12t23 -14.5t19.5 -15t18 -17.5t12.5 -19.5t9.5 -23t2.5 -25q0 -72 -51.5 -110.5t-126.5 -38.5z" />
    <glyph glyph-name="afii10103" unicode="&#x456;" horiz-adv-x="202" 
d="M132 622h-62v90h62v-90zM132 0h-62v504h62v-504z" />
    <glyph glyph-name="afii10104" unicode="&#x457;" horiz-adv-x="202" 
d="M147 622v90h62v-90h-62zM-8 622v90h62v-90h-62zM70 0v504h62v-504h-62z" />
    <glyph glyph-name="afii10105" unicode="&#x458;" horiz-adv-x="202" 
d="M134 622h-62v90h62v-90zM134 -15q0 -183 -139 -183q-21 0 -47 2v55q4 0 16.5 -1t17.5 -1q50 1 70 28.5t20 90.5v528h62v-519z" />
    <glyph glyph-name="afii10106" unicode="&#x459;" horiz-adv-x="833" 
d="M803 148q0 -71 -45.5 -109.5t-124.5 -38.5h-236v452h-206v-156q0 -42 -1 -68.5t-5 -67t-14 -66t-26.5 -51.5t-43.5 -38.5t-63 -12.5q-18 0 -40 4v55q17 -3 35 -3q22 0 38 7t26.5 26t17 41.5t9.5 63t4 80.5t1 104v134h330v-206h178q73 0 119.5 -39t46.5 -111zM739 145
q0 101 -117 101h-163v-194h170q110 0 110 93z" />
    <glyph glyph-name="afii10107" unicode="&#x45a;" horiz-adv-x="833" 
d="M397 246h-273v-246h-62v504h62v-206h273v206h62v-206h178q73 0 119.5 -39t46.5 -111q0 -71 -45.5 -109.5t-124.5 -38.5h-236v246zM622 246h-163v-194h170q110 0 110 93q0 101 -117 101z" />
    <glyph glyph-name="afii10108" unicode="&#x45b;" horiz-adv-x="556" 
d="M3 452v52h71v208h62v-208h257v-52h-257v-153h2q28 39 76.5 63t104.5 24q89 0 137 -52t48 -152v-182h-62v136q0 98 -30 147t-105 49q-57 0 -101.5 -33.5t-69.5 -79.5v-219h-62v452h-71z" />
    <glyph glyph-name="afii10109" unicode="&#x45c;" horiz-adv-x="481" 
d="M252 583h-51l86 129h75zM64 0v504h62v-230l252 230h82l-264 -233l295 -271h-84l-281 262v-262h-62z" />
    <glyph glyph-name="afii10110" unicode="&#x45e;" horiz-adv-x="463" 
d="M203 2l-203 502h70l165 -419l164 419h64l-270 -692h-63zM360 696q-33 -100 -129 -100q-95 0 -129 100l46 16q20 -66 82 -66q65 0 85 66z" />
    <glyph glyph-name="afii10193" unicode="&#x45f;" horiz-adv-x="556" 
d="M309 0v-150h-62v150h-185v504h62v-452h308v452h62v-504h-185z" />
    <glyph glyph-name="afii10050" unicode="&#x490;" horiz-adv-x="481" 
d="M480 667h-342v-667h-69v726h344v132h67v-191z" />
    <glyph glyph-name="afii10098" unicode="&#x491;" horiz-adv-x="400" 
d="M399 452h-271v-452h-62v504h271v135h62v-187z" />
    <glyph glyph-name="endash" unicode="&#x2013;" horiz-adv-x="500" 
d="M0 242v59h500v-59h-500z" />
    <glyph glyph-name="emdash" unicode="&#x2014;" horiz-adv-x="1000" 
d="M0 242v59h1000v-59h-1000z" />
    <glyph glyph-name="quoteleft" unicode="&#x2018;" horiz-adv-x="259" 
d="M204 712l-66 -239h-84l89 239h61z" />
    <glyph glyph-name="quoteright" unicode="&#x2019;" horiz-adv-x="259" 
d="M116 473h-61l66 239h84z" />
    <glyph glyph-name="quotesinglbase" unicode="&#x201a;" horiz-adv-x="259" 
d="M116 -133h-61l66 239h84z" />
    <glyph glyph-name="quotedblleft" unicode="&#x201c;" horiz-adv-x="444" 
d="M387 712l-66 -239h-84l89 239h61zM207 712l-66 -239h-84l89 239h61z" />
    <glyph glyph-name="quotedblright" unicode="&#x201d;" horiz-adv-x="444" 
d="M118 473h-61l66 239h84zM298 473h-61l66 239h84z" />
    <glyph glyph-name="quotedblbase" unicode="&#x201e;" horiz-adv-x="444" 
d="M118 -133h-61l66 239h84zM298 -133h-61l66 239h84z" />
    <glyph glyph-name="dagger" unicode="&#x2020;" 
d="M296 474v-474h-57v474h-181v38h181v200h57v-200h182v-38h-182z" />
    <glyph glyph-name="daggerdbl" unicode="&#x2021;" 
d="M478 282v-38h-182v-244h-57v244h-181v38h181v192h-181v38h181v200h57v-200h182v-38h-182v-192h182z" />
    <glyph glyph-name="bullet" unicode="&#x2022;" horiz-adv-x="500" 
d="M250 174q-73 0 -123.5 51t-50.5 124t50.5 123.5t123.5 50.5t124 -50.5t51 -123.5t-51 -124t-124 -51z" />
    <glyph glyph-name="ellipsis" unicode="&#x2026;" horiz-adv-x="1000" 
d="M111 0v106h82v-106h-82zM460 0v106h82v-106h-82zM807 0v106h82v-106h-82z" />
    <glyph glyph-name="perthousand" unicode="&#x2030;" horiz-adv-x="1000" 
d="M481 -11q-74 0 -108 52.5t-34 137.5q0 191 142 191t142 -191q0 -85 -34 -137.5t-108 -52.5zM136 -22h-37l428 756h37zM173 342q-74 0 -108 52.5t-34 138.5q0 90 32 140t110 50q142 0 142 -190q0 -86 -34 -138.5t-108 -52.5zM481 331q-27 0 -45.5 -15.5t-27 -41t-11.5 -48
t-3 -47.5q0 -24 3.5 -46.5t12 -48t27 -41t44.5 -15.5t44.5 15.5t27 40.5t12 48t3.5 47q0 152 -87 152zM173 684q-27 0 -45.5 -15.5t-27 -40.5t-11.5 -47.5t-3 -47.5q0 -24 3.5 -47.5t12 -48.5t27 -40.5t44.5 -15.5t44.5 15.5t27 40.5t12 48t3.5 48q0 151 -87 151zM801 -11
q-74 0 -108 52.5t-34 137.5q0 191 142 191t142 -191q0 -85 -34 -137.5t-108 -52.5zM801 331q-27 0 -45.5 -15.5t-27 -41t-11.5 -48t-3 -47.5q0 -24 3.5 -46.5t12 -48t27 -41t44.5 -15.5t44.5 15.5t27 40.5t12 48t3.5 47q0 152 -87 152z" />
    <glyph glyph-name="guilsinglleft" unicode="&#x2039;" horiz-adv-x="259" 
d="M168 66l-141 203l141 203h56l-130 -203l130 -203h-56z" />
    <glyph glyph-name="guilsinglright" unicode="&#x203a;" horiz-adv-x="259" 
d="M232 269l-141 -203h-56l130 203l-130 203h56z" />
    <glyph glyph-name="Euro" unicode="&#x20ac;" 
d="M494 675v-71q-53 55 -148 55q-82 0 -127.5 -57t-55.5 -149h288l-19 -55h-276q-1 -11 -1 -40q0 -8 0.5 -22t0.5 -18h249l-18 -56h-224q11 -101 58.5 -155t125.5 -54q91 0 147 56v-73q-50 -46 -156 -46q-210 0 -242 272h-69l18 56h46q-2 18 -2 40q0 18 2 40h-64l18 55h50
q15 125 74.5 197.5t169.5 72.5q103 0 155 -48z" />
    <glyph glyph-name="afii61352" unicode="&#x2116;" horiz-adv-x="1090" 
d="M870 171q-71 0 -113.5 43.5t-42.5 105.5q0 67 41.5 109t114.5 42q74 0 115.5 -41.5t41.5 -109.5q0 -63 -42.5 -106t-114.5 -43zM708 0v58h324v-58h-324zM509 0l-365 650h-2v-650h-67v712h108l359 -642h2v642h67v-712h-102zM870 425q-47 0 -71.5 -28.5t-24.5 -76.5
q0 -47 23 -75.5t73 -28.5q95 0 95 104q0 48 -24 76.5t-71 28.5z" />
    <glyph glyph-name="trademark" unicode="&#x2122;" horiz-adv-x="1000" 
d="M790 301v362l-132 -119l-130 117v-360h-53v411h66l118 -106l118 106h66v-411h-53zM295 666v-365h-53v365h-129v46h311v-46h-129z" />
    <glyph glyph-name="radical" unicode="&#x221a;" horiz-adv-x="487" 
d="M496 785l-210 -999h-60l-167 343l-45 -22l-22 45l94 46l163 -340l191 928z" />
    <glyph glyph-name="infinity" unicode="&#x221e;" horiz-adv-x="738" 
d="M575 114q-32 0 -60 9.5t-57.5 33t-43 36.5t-45.5 46q-64 -67 -94 -88q-53 -37 -112 -37q-54 0 -93.5 47.5t-39.5 104.5q0 61 41.5 106t98.5 45q44 0 81.5 -24t117.5 -102q79 78 116 102t81 24q57 0 98.5 -45t41.5 -106q0 -57 -38.5 -104.5t-92.5 -47.5zM566 378
q-22 0 -41.5 -6t-39 -20.5t-31.5 -24.5t-33.5 -31.5l-29.5 -29.5q64 -70 96 -93t79 -23q41 0 72.5 31.5t31.5 77.5q0 42 -28 80.5t-76 38.5zM170 378q-48 0 -76 -39.5t-28 -79.5q0 -47 33.5 -78t75.5 -31q19 0 37.5 6t30.5 12t30 21.5t24.5 22.5t26 28.5t23.5 25.5
q-5 5 -36.5 35t-45 40.5t-41.5 23.5t-54 13z" />
    <glyph glyph-name="approxequal" unicode="&#x2248;" horiz-adv-x="600" 
d="M413 294q-39 0 -113 38q-6 3 -25.5 14t-31 16.5t-28 11t-29.5 5.5q-48 0 -93 -73l-35 29q20 42 54.5 73.5t74.5 31.5q39 0 113 -38q6 -3 25.5 -14t31 -16.5t28 -11t29.5 -5.5q48 0 93 73l37 -24q-21 -43 -56 -76.5t-75 -33.5zM413 100q-39 0 -113 38q-6 3 -25.5 14
t-31 16.5t-28 11t-29.5 5.5q-48 0 -93 -73l-35 29q20 42 54.5 73.5t74.5 31.5q39 0 113 -38q6 -3 25.5 -14t31 -16.5t28 -11t29.5 -5.5q48 0 93 73l37 -24q-21 -43 -56 -76.5t-75 -33.5z" />
    <glyph glyph-name="notequal" unicode="&#x2260;" horiz-adv-x="600" 
d="M256 114l-66 -115h-57l66 115h-140v57h175l94 164h-269v57h303l67 116h56l-67 -116h147v-57h-180l-95 -164h275v-57h-309z" />
    <glyph glyph-name="lessequal" unicode="&#x2264;" horiz-adv-x="600" 
d="M49 266v60l502 189v-57l-433 -162l433 -160v-58zM49 -27v52h502v-52h-502z" />
    <glyph glyph-name="greaterequal" unicode="&#x2265;" horiz-adv-x="600" 
d="M49 78v58l434 160l-434 162v57l502 -189v-60zM49 -27v52h502v-52h-502z" />
    <glyph glyph-name="nbspace" horiz-adv-x="278" 
 />
    <glyph glyph-name="hyphenminus" horiz-adv-x="333" 
d="M39 242v59h255v-59h-255z" />
    </font>
</defs>
</svg>
